# xmcd
#
# Track frame offsets:
#	150
#	16923
#	31971
#	47394
#	61542
#	79890
#	93513
#	115011
#	130284
#	144357
#	158655
#
# Disc length: 2328 seconds
#
# Revision: 0
# Processed by: cddbd v1.5.2PL0 Copyright (c) Steve Scherf et al.
# Submitted via: SynApp - FreeCDDB Version: 2.3
#
DISCID=7b09160b
DTITLE=Adkins Trace - Honky-tonk-badonkadonk
DYEAR=2007
DGENRE=Country
TTITLE0=01-trace_adkins-honky_tonk_badonkadonk_(radio_mix)_www.file24ever.com
TTITLE1=02-trace_adkins-hot_mama_www.file24ever.com
TTITLE2=03-trace_adkins-songs_about_me_www.file24ever.com
TTITLE3=04-trace_adkins-i_left_something_turned_on_at_home_www.file24ever.com
TTITLE4=05-trace_adkins-(this_aint)_no_thinkin_thing_www.file24ever.com
TTITLE5=06-trace_adkins-every_light_in_the_house_www.file24ever.com
TTITLE6=07-trace_adkins-im_trying_www.file24ever.com
TTITLE7=08-trace_adkins-chrome_www.file24ever.com
TTITLE8=09-trace_adkins-more_www.file24ever.com
TTITLE9=10-trace_adkins-rough_and_ready_www.file24ever.com
TTITLE10=11-trace_adkins-can_i_want_your_love_www.file24ever.com
EXTD=
EXTT0=
EXTT1=
EXTT2=
EXTT3=
EXTT4=
EXTT5=
EXTT6=
EXTT7=
EXTT8=
EXTT9=
EXTT10=
PLAYORDER=
